<mxfile host="www.draw.io" modified="2020-03-05T13:51:48.266Z" agent="Mozilla/5.0 (Macintosh; Intel Mac OS X 10_13_1) AppleWebKit/537.36 (KHTML, like Gecko) Chrome/80.0.3987.122 Safari/537.36" etag="oLMxWCEEn-q5_Smh4zmt" version="12.7.9" type="github">
  <diagram id="FCGtYNX4lYdF8dHmTvmr" name="第 1 页">
    <mxGraphModel dx="658" dy="482" grid="1" gridSize="10" guides="1" tooltips="1" connect="1" arrows="1" fold="1" page="1" pageScale="1" pageWidth="827" pageHeight="1169" math="0" shadow="0">
      <root>
        <mxCell id="0" />
        <mxCell id="1" parent="0" />
        <mxCell id="5xgSnToPOrgnp1A0rw6T-1" value="" style="rounded=0;whiteSpace=wrap;html=1;fillColor=#f5f5f5;strokeColor=#666666;fontColor=#333333;" vertex="1" parent="1">
          <mxGeometry x="160" y="70" width="210" height="280" as="geometry" />
        </mxCell>
        <mxCell id="5xgSnToPOrgnp1A0rw6T-2" value="ftyp（FileType）" style="rounded=1;whiteSpace=wrap;html=1;fillColor=#fff2cc;strokeColor=#d6b656;" vertex="1" parent="1">
          <mxGeometry x="180" y="80" width="170" height="30" as="geometry" />
        </mxCell>
        <mxCell id="5xgSnToPOrgnp1A0rw6T-5" value="" style="rounded=1;whiteSpace=wrap;html=1;fillColor=#fff2cc;strokeColor=#d6b656;" vertex="1" parent="1">
          <mxGeometry x="180" y="130" width="170" height="160" as="geometry" />
        </mxCell>
        <mxCell id="5xgSnToPOrgnp1A0rw6T-6" value="moov（Movie Metadata）" style="text;html=1;strokeColor=none;fillColor=none;align=center;verticalAlign=middle;whiteSpace=wrap;rounded=0;" vertex="1" parent="1">
          <mxGeometry x="192.5" y="140" width="145" height="20" as="geometry" />
        </mxCell>
        <mxCell id="5xgSnToPOrgnp1A0rw6T-7" value="mvhd（Movie Header）" style="rounded=1;whiteSpace=wrap;html=1;fillColor=#dae8fc;strokeColor=#6c8ebf;" vertex="1" parent="1">
          <mxGeometry x="192.5" y="170" width="137.5" height="30" as="geometry" />
        </mxCell>
        <mxCell id="5xgSnToPOrgnp1A0rw6T-8" value="trak（Track）" style="rounded=1;whiteSpace=wrap;html=1;fillColor=#dae8fc;strokeColor=#6c8ebf;" vertex="1" parent="1">
          <mxGeometry x="192.5" y="210" width="137.5" height="30" as="geometry" />
        </mxCell>
        <mxCell id="5xgSnToPOrgnp1A0rw6T-9" value="udta（User Data）" style="rounded=1;whiteSpace=wrap;html=1;fillColor=#dae8fc;strokeColor=#6c8ebf;" vertex="1" parent="1">
          <mxGeometry x="192.5" y="250" width="137.5" height="30" as="geometry" />
        </mxCell>
        <mxCell id="5xgSnToPOrgnp1A0rw6T-10" value="mdat（Media Data）" style="rounded=1;whiteSpace=wrap;html=1;fillColor=#fff2cc;strokeColor=#d6b656;" vertex="1" parent="1">
          <mxGeometry x="180" y="310" width="170" height="30" as="geometry" />
        </mxCell>
      </root>
    </mxGraphModel>
  </diagram>
</mxfile>
